<svg xmlns="http://www.w3.org/2000/svg" width="32" height="25" viewBox="0 0 32 25">
    <g fill="none" fill-rule="evenodd">
        <g fill="#000" fill-rule="nonzero">
            <g>
                <path d="M29.714 22.727V5.682c0-.628-.511-1.137-1.143-1.137H24c-.631 0-1.143.51-1.143 1.137v17.045h-2.286V1.137C20.571.508 20.06 0 19.43 0h-4.572c-.631 0-1.143.509-1.143 1.136v21.591H11.43V11.364c0-.628-.512-1.137-1.143-1.137H5.714c-.63 0-1.143.509-1.143 1.137v11.363H2.286V0H0v23.864C0 24.49.512 25 1.143 25H32v-2.273h-2.286z" transform="translate(-1025 -330) translate(1025 330)"/>
            </g>
        </g>
    </g>
</svg>
