<svg xmlns="http://www.w3.org/2000/svg" width="32" height="32" viewBox="0 0 32 32">
    <g fill="none" fill-rule="evenodd">
        <g fill-rule="nonzero">
            <g>
                <path fill="#000" d="M16 0C7.164 0 0 7.164 0 16s7.164 16 16 16 16-7.164 16-16S24.836 0 16 0z" transform="translate(-474 -326) translate(474 326)"/>
                <g fill="#FFF">
                    <path d="M13.52 5.68c-.32-.32-.8-.32-1.12 0L5.68 12.4c-.32.32-.32.8 0 1.12.32.32.8.32 1.12 0l6.72-6.72c.32-.32.32-.8 0-1.12z" transform="translate(-474 -326) translate(474 326) translate(6 6)"/>
                    <path d="M6.8 18l2.8-2.8c1.12-1.12 1.44-2.8.88-4.24l-1.36 1.36c0 .64-.16 1.28-.72 1.84l-2.8 2.8c-.96.96-2.48.96-3.36 0-.96-.96-.96-2.48 0-3.36l2.8-2.8c.48-.48 1.2-.72 1.84-.72l1.36-1.36C6.8 8.16 5.12 8.4 4 9.6l-2.8 2.8c-1.52 1.52-1.52 4.08 0 5.6 1.52 1.6 4.08 1.6 5.6 0zM10.72 5.12l2.8-2.8c.96-.96 2.48-.96 3.36 0 .88.96.96 2.48 0 3.36l-2.8 2.8c-.48.48-1.2.72-1.84.72l-1.36 1.36c1.44.56 3.12.24 4.24-.88l2.8-2.8c1.52-1.52 1.52-4.08 0-5.6-1.52-1.52-4.08-1.52-5.6 0L9.6 4c-1.12 1.12-1.44 2.8-.88 4.24l1.36-1.36c-.08-.64.16-1.28.64-1.76z" transform="translate(-474 -326) translate(474 326) translate(6 6)"/>
                </g>
            </g>
        </g>
    </g>
</svg>
