<svg xmlns="http://www.w3.org/2000/svg" width="32" height="31" viewBox="0 0 32 31">
    <g fill="none" fill-rule="evenodd">
        <g fill="#000" fill-rule="nonzero">
            <g>
                <g>
                    <path d="M7.298 8.309l6.906-3.986L7.579.618c-.168-.113-.393-.113-.561 0L.393 4.378l6.905 3.93zM6.737 9.32L0 5.445v7.017c0 .225.112.393.28.505l6.457 3.65V9.319zM7.86 9.32v7.298l6.456-3.65c.168-.112.28-.28.28-.505V5.446L7.86 9.319z" transform="translate(-184 -741) translate(184 741) translate(0 13.474)"/>
                </g>
                <g>
                    <path d="M7.298 8.309l6.906-3.986L7.579.618c-.168-.113-.393-.113-.561 0L.393 4.378l6.905 3.93zM6.737 9.32L0 5.445v7.017c0 .225.112.393.28.505l6.457 3.65V9.319zM7.86 9.32v7.298l6.456-3.65c.168-.112.28-.28.28-.505V5.446L7.86 9.319z" transform="translate(-184 -741) translate(184 741) translate(16.842 13.474)"/>
                </g>
                <g>
                    <path d="M7.298 8.309l6.906-3.986L7.579.618c-.168-.113-.393-.113-.561 0L.393 4.378l6.905 3.93zM6.737 9.32L0 5.445v7.017c0 .225.112.393.28.505l6.457 3.65V9.319zM7.86 9.32v7.298l6.456-3.65c.168-.112.28-.28.28-.505V5.446L7.86 9.319z" transform="translate(-184 -741) translate(184 741) translate(8.421)"/>
                </g>
            </g>
        </g>
    </g>
</svg>
