<svg xmlns="http://www.w3.org/2000/svg" width="32" height="32" viewBox="0 0 32 32">
    <g fill="none" fill-rule="evenodd">
        <g fill="#000" fill-rule="nonzero">
            <g>
                <path d="M19.132 17.233c-.369-.185-1.19-.434-2.167-.498-.977-.065-2.231 0-2.231 0v4.231s1.31.028 2.185-.036c.876-.065 1.78-.286 2.231-.535.452-.25.996-.636.996-1.604 0-.969-.645-1.374-1.014-1.558zM16.375 14.77c.72-.027 1.485-.193 2.037-.497.554-.305.867-.784.849-1.503-.019-.72-.498-1.328-1.31-1.577-.81-.249-1.354-.267-1.972-.276-.618-.01-1.245.046-1.245.046v3.808s.922.027 1.641 0z" transform="translate(-1025 -393) translate(1025 393)"/>
                <path d="M15.988 0C7.158 0 0 7.158 0 15.988c0 8.83 7.158 15.987 15.988 15.987 8.83 0 15.987-7.158 15.987-15.987C31.975 7.158 24.817 0 15.988 0zm6.51 22.1c-1.19.83-2.463.978-3.025 1.052-.278.036-.753.075-1.263.105v3.205h-1.973v-3.153h-1.503v3.153h-1.973v-3.153H8.879l.406-2.37h1.18c.397 0 .562-.037.728-.194.166-.157.203-.396.203-.59V11.99c0-.511-.042-.65-.277-.912-.235-.263-.788-.298-1.1-.298H8.88V8.731h3.882V5.57h1.973v3.162h1.502V5.57h1.974v3.2c1.47.092 2.566.372 3.522 1.078 1.235.913 1.17 2.499 1.143 2.877-.028.378-.194 1.106-.526 1.576-.331.47-1.143.94-1.143.94s.959.204 1.632.71c.673.508 1.171 1.402 1.143 2.711-.027 1.31-.294 2.61-1.484 3.44z" transform="translate(-1025 -393) translate(1025 393)"/>
            </g>
        </g>
    </g>
</svg>
