<svg xmlns="http://www.w3.org/2000/svg" width="28" height="32" viewBox="0 0 28 32">
    <g fill="none" fill-rule="evenodd">
        <g fill="#000" fill-rule="nonzero">
            <g>
                <path d="M8 0C3.429 0 0 1.943 0 4.571 0 7.2 3.429 9.143 8 9.143S16 7.2 16 4.57C16 1.943 12.571 0 8 0z" transform="translate(-186 -393) translate(186 393)"/>
                <path d="M8 11.429c-3.314 0-6.171-.915-8-2.4v1.257c0 2.628 3.429 4.571 8 4.571s8-1.943 8-4.571V9.029c-1.829 1.485-4.686 2.4-8 2.4z" transform="translate(-186 -393) translate(186 393)"/>
                <path d="M8 17.143c-3.314 0-6.171-.914-8-2.4V16c0 2.629 3.429 4.571 8 4.571S16 18.63 16 16v-1.257c-1.829 1.486-4.686 2.4-8 2.4z" transform="translate(-186 -393) translate(186 393)"/>
                <path d="M8 22.857c-3.314 0-6.171-.914-8-2.4v1.257c0 2.629 3.429 4.572 8 4.572s8-1.943 8-4.572v-1.257c-1.829 1.486-4.686 2.4-8 2.4z" transform="translate(-186 -393) translate(186 393)"/>
                <path d="M8 28.571c-3.314 0-6.171-.914-8-2.4v1.258C0 30.057 3.429 32 8 32s8-1.943 8-4.571V26.17c-1.829 1.486-4.686 2.4-8 2.4zM19.429 25.143h-1.143v3.428h1.143c4.571 0 8-1.942 8-4.571v-1.257c-1.829 1.486-4.686 2.4-8 2.4zM19.429 19.429h-1.143v3.428h1.143c4.571 0 8-1.943 8-4.571v-1.257c-1.829 1.485-4.686 2.4-8 2.4zM19.429 8h-1.143v9.143h1.143c4.571 0 8-1.943 8-4.572C27.429 9.943 24 8 19.429 8z" transform="translate(-186 -393) translate(186 393)"/>
            </g>
        </g>
    </g>
</svg>
