<svg xmlns="http://www.w3.org/2000/svg" width="32" height="15" viewBox="0 0 32 15">
    <g fill="none" fill-rule="evenodd">
        <g fill="#231F20" fill-rule="nonzero">
            <g>
                <path d="M32 5.12h-2.268c-.125-.667-.71-1.28-1.413-1.28h-.96c-.054 0-.159-.203-.159-.197V1.547C27.2.753 26.553 0 25.76 0h-2.24c-.795 0-1.44.753-1.44 1.547V5.12H9.92V1.547C9.92.753 9.273 0 8.48 0H6.24C5.444 0 4.8.753 4.8 1.547v2.116c0-.006-.106.177-.16.177h-.96c-.696 0-1.278.623-1.412 1.28H0V9.6h2.243c.018.779.654 1.28 1.436 1.28h.96c.055 0 .161.117.161.11v2.397c0 .794.645 1.333 1.44 1.333h2.24c.793 0 1.44-.54 1.44-1.333V9.6h12.16v3.787c0 .794.645 1.333 1.44 1.333h2.24c.793 0 1.44-.54 1.44-1.333V10.97c0 .006.105-.091.16-.091h.96c.775 0 1.405-.511 1.434-1.28H32V5.12z" transform="translate(-184 -336) translate(184 336)"/>
            </g>
        </g>
    </g>
</svg>
