<svg xmlns="http://www.w3.org/2000/svg" width="32" height="24" viewBox="0 0 32 24">
    <g fill="none" fill-rule="evenodd">
        <g fill="#000" fill-rule="nonzero">
            <g>
                <path d="M26.667 0H5.333C2.4 0 0 2.4 0 5.333v1.334C0 7.467.533 8 1.333 8h29.334C31.467 8 32 7.467 32 6.667V5.333C32 2.4 29.6 0 26.667 0zM30.667 10.667H1.333C.533 10.667 0 11.2 0 12v6.667C0 21.6 2.4 24 5.333 24h21.334C29.6 24 32 21.6 32 18.667V12c0-.8-.533-1.333-1.333-1.333zm-16 9.333h-8c-.8 0-1.334-.533-1.334-1.333 0-.8.534-1.334 1.334-1.334h8c.8 0 1.333.534 1.333 1.334S15.467 20 14.667 20zm10.666-4h-2.666c-.8 0-1.334-.533-1.334-1.333 0-.8.534-1.334 1.334-1.334h2.666c.8 0 1.334.534 1.334 1.334S26.133 16 25.333 16z" transform="translate(-474 -397) translate(474 397)"/>
            </g>
        </g>
    </g>
</svg>
