<svg xmlns="http://www.w3.org/2000/svg" width="32" height="25" viewBox="0 0 32 25">
    <g fill="none" fill-rule="evenodd">
        <g fill="#000">
            <g>
                <path d="M7.2 1.13c.695.695.695 1.82 0 2.514-4.86 4.86-4.86 12.74 0 17.6.695.694.695 1.82 0 2.514-.694.694-1.82.694-2.514 0-6.248-6.249-6.248-16.38 0-22.628.695-.694 1.82-.694 2.514 0zm17.6 0c.694-.694 1.82-.694 2.514 0 6.248 6.25 6.248 16.38 0 22.628-.694.694-1.82.694-2.514 0-.695-.694-.695-1.82 0-2.514 4.86-4.86 4.86-12.74 0-17.6-.695-.693-.695-1.819 0-2.513zM12.229 6.16c.694.694.694 1.82 0 2.514-2.083 2.083-2.083 5.46 0 7.542.694.695.694 1.82 0 2.514-.694.695-1.82.695-2.514 0-3.472-3.47-3.472-9.1 0-12.57.694-.695 1.82-.695 2.514 0zm7.542 0c.695-.694 1.82-.694 2.514 0 3.472 3.471 3.472 9.1 0 12.57-.694.695-1.82.695-2.514 0-.694-.693-.694-1.82 0-2.513 2.083-2.083 2.083-5.46 0-7.543-.694-.694-.694-1.82 0-2.514zM16 10.667c.982 0 1.778.796 1.778 1.777v.018c0 .982-.796 1.778-1.778 1.778s-1.778-.796-1.778-1.778v-.018c0-.981.796-1.777 1.778-1.777z" transform="translate(-184 -588) translate(184 588)"/>
            </g>
        </g>
    </g>
</svg>
