<svg xmlns="http://www.w3.org/2000/svg" width="30" height="32" viewBox="0 0 30 32">
    <g fill="none" fill-rule="evenodd">
        <g fill="#000" fill-rule="nonzero">
            <g>
                <path d="M26.182 22.08v-7.535H16V9.92c2.004-.708 3.206-2.757 2.846-4.852-.36-2.095-2.175-3.626-4.3-3.626-2.126 0-3.942 1.531-4.301 3.626-.36 2.095.842 4.144 2.846 4.852v4.625H2.909v7.535c-2.004.708-3.206 2.757-2.846 4.852.36 2.095 2.175 3.626 4.3 3.626 2.126 0 3.942-1.531 4.301-3.626.36-2.095-.842-4.144-2.846-4.852v-4.625h7.273v4.625c-2.004.708-3.206 2.757-2.846 4.852.359 2.095 2.175 3.626 4.3 3.626 2.126 0 3.942-1.531 4.301-3.626.36-2.095-.842-4.144-2.846-4.852v-4.625h7.273v4.625c-2.004.708-3.206 2.757-2.847 4.852.36 2.095 2.176 3.626 4.301 3.626 2.126 0 3.942-1.531 4.301-3.626.36-2.095-.842-4.144-2.846-4.852z" transform="translate(-185 -659) translate(185 659)"/>
            </g>
        </g>
    </g>
</svg>
