<svg xmlns="http://www.w3.org/2000/svg" width="16" height="16" viewBox="0 0 16 16">
    <g fill="none" fill-rule="evenodd">
        <g fill="#E4A416" fill-rule="nonzero">
            <g>
                <path d="M7.877 0C3.533 0 0 3.533 0 7.877c0 4.343 3.533 7.877 7.877 7.877 4.343 0 7.877-3.534 7.877-7.877C15.754 3.533 12.22 0 7.877 0zm3.446 8.533h-2.79v2.79c0 .362-.294.656-.656.656-.362 0-.656-.294-.656-.656v-2.79H4.43c-.363 0-.657-.294-.657-.656 0-.362.294-.656.657-.656h2.79V4.43c0-.363.294-.657.656-.657.362 0 .656.294.656.657v2.79h2.79c.362 0 .656.294.656.656 0 .362-.294.656-.656.656z" transform="translate(-184 -227) translate(184 227)"/>
            </g>
        </g>
    </g>
</svg>
