<svg xmlns="http://www.w3.org/2000/svg" width="10" height="11" viewBox="0 0 10 11">
    <g fill="none" fill-rule="evenodd">
        <g fill="#919191" fill-rule="nonzero">
            <g>
                <g>
                    <path d="M9.667 8.174c.413.413.413 1.08 0 1.493-.206.206-.476.31-.747.31-.27 0-.54-.104-.746-.31L5 6.493 1.826 9.667c-.205.206-.476.31-.746.31s-.541-.104-.747-.31c-.413-.413-.413-1.08 0-1.493L3.507 5 .333 1.826C-.08 1.413-.08.746.333.333c.413-.413 1.08-.413 1.493 0L5 3.507 8.174.333c.413-.413 1.08-.413 1.493 0 .413.413.413 1.08 0 1.493L6.493 5l3.174 3.174z" transform="translate(-885 -407) translate(160 199) translate(725 208.512)"/>
                </g>
            </g>
        </g>
    </g>
</svg>
