<svg xmlns="http://www.w3.org/2000/svg" width="24" height="32" viewBox="0 0 24 32">
    <g fill="none" fill-rule="evenodd">
        <g>
            <g>
                <path fill="#000" fill-rule="nonzero" d="M1.266 28.936c-.659 0-1.194-.534-1.194-1.194V4.26C.075 1.908 1.98.003 4.332 0h17.837c.66 0 1.194.535 1.194 1.194v23.483c0 .66-.534 1.194-1.194 1.194-.66 0-1.194-.535-1.194-1.194V2.388H4.331c-1.032 0-1.87.837-1.87 1.87V27.74c0 .317-.126.622-.35.846-.224.224-.528.35-.845.35z" transform="translate(-937 -584) translate(937 584)"/>
                <path fill="#000" d="M1.99 1.91H21.572V24.199H1.99z" transform="translate(-937 -584) translate(937 584)"/>
                <path fill="#000" fill-rule="nonzero" d="M22.17 32H4.33C1.98 32 .072 30.093.072 27.741c0-2.352 1.907-4.258 4.26-4.258h17.837c.66 0 1.194.534 1.194 1.194 0 .66-.534 1.194-1.194 1.194H4.331c-.668 0-1.286.356-1.62.935-.334.579-.334 1.292 0 1.87.334.58.952.936 1.62.936H22.17c.66 0 1.194.535 1.194 1.194 0 .66-.534 1.194-1.194 1.194z" transform="translate(-937 -584) translate(937 584)"/>
                <path fill="#000" fill-rule="nonzero" d="M20.787 31.807c-.66 0-1.194-.534-1.194-1.194v-5.936c0-.66.535-1.194 1.194-1.194.66 0 1.194.534 1.194 1.194v5.936c0 .316-.125.62-.35.844-.223.224-.527.35-.844.35z" transform="translate(-937 -584) translate(937 584)"/>
                <path fill="#FFF" fill-rule="nonzero" d="M17.478 11.004h-4.93c-.659 0-1.194-.534-1.194-1.194 0-.66.535-1.194 1.194-1.194h4.93c.66 0 1.194.535 1.194 1.194 0 .66-.534 1.194-1.194 1.194zM17.478 14.905h-4.93c-.659 0-1.194-.535-1.194-1.194 0-.66.535-1.194 1.194-1.194h4.93c.66 0 1.194.534 1.194 1.194 0 .66-.534 1.194-1.194 1.194z" transform="translate(-937 -584) translate(937 584)"/>
                <path fill="#FFF" fill-rule="nonzero" d="M12.702 14.905h-4.93c-.66 0-1.194-.535-1.194-1.194 0-.66.535-1.194 1.194-1.194h4.93c.66 0 1.194.534 1.194 1.194 0 .66-.534 1.194-1.194 1.194z" transform="translate(-937 -584) translate(937 584)"/>
            </g>
        </g>
    </g>
</svg>
