<svg xmlns="http://www.w3.org/2000/svg" width="32" height="29" viewBox="0 0 32 29">
    <g fill="none" fill-rule="evenodd">
        <g fill="#000" fill-rule="nonzero">
            <g>
                <path d="M16 0C7.163 0 0 7.163 0 16c-.017 4.847 2.188 9.434 5.984 12.448l.416.352h19.2l.432-.352C29.822 25.431 32.021 20.844 32 16c0-8.837-7.163-16-16-16zm10.096 8.16L24 10.336 21.664 8l2.176-2.096c.852.644 1.612 1.404 2.256 2.256zM16 3.2c.535 0 1.07.032 1.6.096V6.4h-3.2V3.296c.53-.064 1.065-.096 1.6-.096zM10.336 8L8 10.336 5.904 8.16c.644-.852 1.404-1.612 2.256-2.256L10.336 8zM3.2 16c0-.535.032-1.07.096-1.6H6.4v3.2H3.312c-.078-.53-.115-1.065-.112-1.6zm15.568 9.6c-.572-.987-1.627-1.594-2.768-1.594-1.14 0-2.196.607-2.768 1.594H9.808c.065-.255.146-.506.24-.752.75-1.908 2.367-3.342 4.352-3.856V11.2h3.2v9.808c1.894.487 3.462 1.813 4.256 3.6.143.32.255.652.336.992h-3.424zm6.832-8v-3.2h3.104c.064.53.096 1.065.096 1.6.003.535-.034 1.07-.112 1.6H25.6z" transform="translate(-184 -261) translate(184 261)"/>
            </g>
        </g>
    </g>
</svg>
