<svg xmlns="http://www.w3.org/2000/svg" width="32" height="32" viewBox="0 0 32 32">
    <g fill="none" fill-rule="evenodd">
        <g fill-rule="nonzero">
            <g>
                <g fill="#000">
                    <path d="M16 0C7.164 0 0 7.164 0 16s7.164 16 16 16 16-7.164 16-16S24.836 0 16 0z" transform="translate(-474 -259) translate(474 259)"/>
                </g>
                <g fill="#FFF">
                    <path d="M18.455 6.294c.703 0 1.273-.57 1.273-1.273 0-.702-.57-1.272-1.273-1.272H4.347L5.989 2.1c.432-.505.403-1.258-.067-1.728-.47-.47-1.223-.5-1.728-.067L.376 4.124c-.366.363-.476.911-.28 1.387.198.475.662.784 1.177.783h17.182zM19.728 10.749H2.546c-.703 0-1.273.57-1.273 1.272 0 .703.57 1.273 1.273 1.273h14.108l-1.642 1.648c-.363.311-.521.8-.41 1.265.112.465.475.828.94.94.465.111.954-.047 1.265-.41l3.818-3.818c.365-.363.476-.911.28-1.388-.198-.474-.663-.783-1.177-.782z" transform="translate(-474 -259) translate(474 259) translate(6 7)"/>
                </g>
            </g>
        </g>
    </g>
</svg>
