<svg xmlns="http://www.w3.org/2000/svg" width="24" height="32" viewBox="0 0 24 32">
    <g fill="none" fill-rule="evenodd">
        <g fill="#000" fill-rule="nonzero">
            <g>
                <path d="M20.352 12.493h-1.278V7.548c0-2.015-.781-3.9-2.2-5.318C15.452.807 13.567.026 11.56.026c-2.01 0-3.9.789-5.318 2.207-1.419 1.423-2.204 3.293-2.204 5.33h2.222c0-2.926 2.378-5.311 5.3-5.311 1.415 0 2.745.544 3.745 1.544s1.548 2.33 1.548 3.748v4.945H2.759C1.237 12.489 0 13.726 0 15.249v13.944c0 1.53 1.237 2.774 2.76 2.774h17.592c1.522 0 2.76-1.245 2.76-2.774V15.252c0-1.522-1.238-2.76-2.76-2.76zm-8.056 12.051V26.6h-1.481v-2.056c-.852-.303-1.463-1.118-1.463-2.074 0-1.214.989-2.203 2.204-2.203 1.214 0 2.203.989 2.203 2.203 0 .956-.61 1.77-1.463 2.074z" transform="translate(-732 -259) translate(732 259)"/>
            </g>
        </g>
    </g>
</svg>
