<svg xmlns="http://www.w3.org/2000/svg" width="32" height="32" viewBox="0 0 32 32">
    <g fill="none" fill-rule="evenodd">
        <g fill="#000" fill-rule="nonzero">
            <g>
                <path d="M16 0C7.164 0 0 7.164 0 16s7.164 16 16 16 16-7.164 16-16S24.836 0 16 0zm1.333 23.81v2.857h-2.666v-2.85c-2.84-.378-4.628-2.03-4.728-4.478h3.041c.145 1.218 1.375 2 3.145 2 1.636 0 2.792-.792 2.792-1.927 0-.959-.749-1.51-2.593-1.907l-1.959-.416c-2.74-.573-4.082-2-4.082-4.292 0-2.44 1.698-4.154 4.384-4.585V5.333h2.666v2.875c2.608.423 4.368 2.112 4.45 4.423h-2.959c-.145-1.188-1.25-1.979-2.77-1.979-1.574 0-2.615.73-2.615 1.875 0 .926.718 1.458 2.478 1.833l1.812.385c3.022.636 4.323 1.938 4.323 4.271.001 2.643-1.767 4.39-4.719 4.793z" transform="translate(-728 -393) translate(728 393)"/>
            </g>
        </g>
    </g>
</svg>
