<svg xmlns="http://www.w3.org/2000/svg" width="32" height="31" viewBox="0 0 32 31">
    <g fill="none" fill-rule="evenodd">
        <g fill="#000" fill-rule="nonzero">
            <g>
                <path d="M30.316 25.833v1.723c0 1.903-1.508 3.444-3.369 3.444H3.368C1.508 31 0 29.459 0 27.556V3.444C0 1.541 1.507 0 3.368 0h23.58c1.86 0 3.368 1.541 3.368 3.444v1.723H15.158c-1.861 0-3.369 1.541-3.369 3.444V22.39c0 1.903 1.508 3.444 3.369 3.444h15.158zM15.158 22.39H32V8.61H15.158V22.39zm6.737-4.306c-1.398 0-2.527-1.154-2.527-2.583 0-1.43 1.129-2.583 2.527-2.583 1.398 0 2.526 1.154 2.526 2.583 0 1.43-1.128 2.583-2.526 2.583z" transform="translate(-728 -326) translate(728 326)"/>
            </g>
        </g>
    </g>
</svg>
