<?xml version="1.0" encoding="utf-8"?>
<!-- Generator: Adobe Illustrator 24.0.0, SVG Export Plug-In . SVG Version: 6.00 Build 0)  -->
<svg version="1.1" id="Layer_1" xmlns="http://www.w3.org/2000/svg" xmlns:xlink="http://www.w3.org/1999/xlink" x="0px" y="0px"
	 viewBox="0 0 450 470" style="enable-background:new 0 0 450 470;" xml:space="preserve">
<style type="text/css">
	.st0{fill:url(#SVGID_1_);}
	.st1{fill:url(#SVGID_2_);}
	.st2{fill:url(#SVGID_3_);}
	.st3{fill:url(#SVGID_4_);}
	.st4{fill:url(#SVGID_5_);}
	.st5{fill:url(#SVGID_6_);}
	.st6{fill:url(#SVGID_7_);}
	.st7{fill:url(#SVGID_8_);}
</style>
<g>
	
		<linearGradient id="SVGID_1_" gradientUnits="userSpaceOnUse" x1="224.9998779" y1="-16.9319305" x2="224.9998779" y2="475.7710876">
		<stop  offset="0" style="stop-color:#FFD663"/>
		<stop  offset="1" style="stop-color:#C89C65"/>
	</linearGradient>
	<path class="st0" d="M268.2674255,229.791275c22.7735291-6.3996124,34.1587524-19.4467163,34.1587524-39.1463928
		c0-14.6477661-5.0594788-25.0844421-15.1812439-31.3171082c-8.068573-4.9669037-19.735321-7.9203339-34.877121-8.9280853
		v-28.979866h-22.414566v28.5609818h-22.4140625v-28.5609818h-22.4143219v28.5609818h-44.8901062v20.7499084h9.6153564
		c7.2492676,0,11.7651672,0.8863373,13.5350494,2.6569824c1.7729187,1.7696228,2.6562195,6.1152954,2.6562195,13.0309143v96.9108276
		c0,6.9186707-0.8833008,11.2612915-2.6562195,13.0309448c-1.7698822,1.7736816-6.2857819,2.6569519-13.5350494,2.6569519
		h-9.6153564v20.749939h44.8901062v28.8139038h22.4143219v-28.8139038h22.4140625v28.8139038h22.414566v-29.2823792
		c17.4398346-1.0906982,30.6321259-4.2060242,39.4329987-9.4157715
		c11.9750977-7.2677307,17.9641724-19.3445435,17.9641724-36.2435608
		C309.7649841,249.1398468,295.9304504,234.5234375,268.2674255,229.791275z M207.5391846,170.7307129h14.6778717
		c12.815155,0,22.0505829,1.7645721,27.7062683,5.291687c5.649353,3.5240936,8.4755707,9.9854279,8.4755707,19.3819733
		c0,9.7355042-2.8694611,16.4902496-8.6023102,20.2682953c-5.7358704,3.7780457-15.3512115,5.6650543-28.8460388,5.6650543
		h-13.4113617V170.7307129z M255.3624878,293.4514465c-6.2422791,3.8822632-16.870697,5.8188477-31.8822021,5.8188477h-15.9411011
		v-57.1856995h15.4344482c15.1845245,0,25.976593,1.8596802,32.388855,5.568924
		c7.0856018,4.216156,10.628418,11.6386871,10.628418,22.2676239
		C265.9909058,281.2229004,262.4480896,289.0683594,255.3624878,293.4514465z"/>
	<linearGradient id="SVGID_2_" gradientUnits="userSpaceOnUse" x1="225" y1="-16.9319305" x2="225" y2="475.7710876">
		<stop  offset="0" style="stop-color:#FFD663"/>
		<stop  offset="1" style="stop-color:#C89C65"/>
	</linearGradient>
	<path class="st1" d="M225.0002594,58.7855988c-97.3206253,0-176.2154236,78.8947906-176.2154236,176.2154083
		s78.8947906,176.2144165,176.2154236,176.2144165s176.2148895-78.8937988,176.2148895-176.2144165
		S322.3208618,58.7855988,225.0002594,58.7855988z M225.0002594,381.8470154
		c-81.1005249,0-146.8460083-65.7454834-146.8460083-146.8460083c0-81.1015167,65.745491-146.8460083,146.8460083-146.8460083
		s146.845993,65.7444916,146.845993,146.8460083C371.8462524,316.101532,306.100769,381.8470154,225.0002594,381.8470154z"/>
	<linearGradient id="SVGID_3_" gradientUnits="userSpaceOnUse" x1="45.2011833" y1="-16.9319305" x2="45.2011833" y2="475.7710876">
		<stop  offset="0" style="stop-color:#FFD663"/>
		<stop  offset="1" style="stop-color:#C89C65"/>
	</linearGradient>
	<path class="st2" d="M71.1733551,127.0474319l-35.3670769-20.4200668L19.2290115,135.338089l35.3357124,20.4018555
		C59.2632523,145.6543579,64.8334427,136.0645599,71.1733551,127.0474319z"/>
	
		<linearGradient id="SVGID_4_" gradientUnits="userSpaceOnUse" x1="404.7985535" y1="-16.9319305" x2="404.7985535" y2="475.7710876">
		<stop  offset="0" style="stop-color:#FFD663"/>
		<stop  offset="1" style="stop-color:#C89C65"/>
	</linearGradient>
	<path class="st3" d="M430.7709961,135.338089l-16.5772705-28.7107239l-35.3675842,20.4200668
		c6.3399048,9.017128,11.9098511,18.606926,16.6086426,28.6925125L430.7709961,135.338089z"/>
	<linearGradient id="SVGID_5_" gradientUnits="userSpaceOnUse" x1="225" y1="-16.9319305" x2="225" y2="475.7710876">
		<stop  offset="0" style="stop-color:#FFD663"/>
		<stop  offset="1" style="stop-color:#C89C65"/>
	</linearGradient>
	<path class="st4" d="M241.5772705,47.8076096V6.9654503h-33.154541v40.8421593
		c5.4664917-0.4775658,10.9865875-0.7689629,16.5770111-0.7689629
		C230.5904236,47.0386467,236.1107788,47.3300438,241.5772705,47.8076096z"/>
	<linearGradient id="SVGID_6_" gradientUnits="userSpaceOnUse" x1="45.2008057" y1="-16.9319305" x2="45.2008057" y2="475.7710876">
		<stop  offset="0" style="stop-color:#FFD663"/>
		<stop  offset="1" style="stop-color:#C89C65"/>
	</linearGradient>
	<path class="st5" d="M19.2290115,334.6619263l16.5772667,28.7107239l35.3663216-20.4180603
		c-6.33992-9.0171204-11.9095993-18.6069336-16.6083832-28.6925049L19.2290115,334.6619263z"/>
	
		<linearGradient id="SVGID_7_" gradientUnits="userSpaceOnUse" x1="404.7989502" y1="-16.9319305" x2="404.7989502" y2="475.7710876">
		<stop  offset="0" style="stop-color:#FFD663"/>
		<stop  offset="1" style="stop-color:#C89C65"/>
	</linearGradient>
	<path class="st6" d="M378.8269043,342.9545898l35.3668213,20.4180603l16.5772705-28.7107239l-35.3357239-20.3998413
		C390.7367554,324.3476562,385.1668091,333.9374695,378.8269043,342.9545898z"/>
	<linearGradient id="SVGID_8_" gradientUnits="userSpaceOnUse" x1="225" y1="-16.9319305" x2="225" y2="475.7710876">
		<stop  offset="0" style="stop-color:#FFD663"/>
		<stop  offset="1" style="stop-color:#C89C65"/>
	</linearGradient>
	<path class="st7" d="M208.4227295,422.1944275v40.8401184h33.154541v-40.8401184
		c-5.4664917,0.4775391-10.9868469,0.7689514-16.5775299,0.7689514
		C219.409317,422.9633789,213.8892212,422.6719666,208.4227295,422.1944275z"/>
</g>
</svg>
