<?xml version="1.0" encoding="UTF-8"?>
<svg width="122px" height="28px" viewBox="0 0 122 28" version="1.1" xmlns="http://www.w3.org/2000/svg" xmlns:xlink="http://www.w3.org/1999/xlink">
    <title>E63E5729-1C75-4A3D-BA51-B0E8D5889052</title>
    <defs>
        <path d="M0.0989032258,14.0234839 C0.0989032258,21.6878065 6.31219355,27.9010968 13.9765161,27.9010968 L13.9765161,27.9010968 C21.6408387,27.9010968 27.854129,21.6878065 27.854129,14.0234839 L27.854129,14.0234839 C27.854129,6.35916129 21.6408387,0.145870968 13.9765161,0.145870968 L13.9765161,0.145870968 C6.31219355,0.145870968 0.0989032258,6.35916129 0.0989032258,14.0234839" id="path-1"></path>
        <linearGradient x1="49.9997982%" y1="9.61632334e-05%" x2="49.9997982%" y2="100.000506%" id="linearGradient-3">
            <stop stop-color="#F9D400" offset="0%"></stop>
            <stop stop-color="#E4A315" offset="100%"></stop>
        </linearGradient>
    </defs>
    <g id="Page-1" stroke="none" stroke-width="1" fill="none" fill-rule="evenodd">
        <g id="explorer_main_v2" transform="translate(-160.000000, -14.000000)">
            <g id="Group-26" transform="translate(160.000000, 14.000000)">
                <path d="M115.4028,18.8019313 L115.4028,6.26409156 L116.863729,6 L116.863729,10.3881974 C117.13555,10.2784692 117.426408,10.1933834 117.735859,10.132475 C118.044425,10.0724964 118.350335,10.0418097 118.654031,10.0418097 C119.30348,10.0418097 119.842253,10.1385193 120.27212,10.3305436 C120.701544,10.5230329 121.044198,10.7922389 121.300968,11.1390916 C121.557737,11.4854793 121.738361,11.9006795 121.842839,12.3846924 C121.947761,12.8687053 122,13.4020029 122,13.9845851 L122,18.8019313 L120.539514,18.8019313 L120.539514,14.3146996 C120.539514,13.7865165 120.504983,13.33598 120.437249,12.9616953 C120.369072,12.5883405 120.256625,12.2856581 120.099022,12.054578 C119.942304,11.8234979 119.732462,11.6561159 119.470823,11.5515021 C119.209184,11.4468884 118.884238,11.394814 118.49687,11.394814 C118.340152,11.394814 118.177679,11.4055079 118.010337,11.4278255 C117.842994,11.4496781 117.682734,11.4747854 117.531329,11.5017525 C117.379038,11.5291845 117.242685,11.5594063 117.122712,11.5928827 C117.001853,11.6254292 116.915968,11.6533262 116.863729,11.6751788 L116.863729,18.8019313 L115.4028,18.8019313 Z M110.297519,17.6967454 C110.894286,17.6967454 111.336549,17.6139843 111.625193,17.448927 C111.912509,17.2843348 112.056831,17.0202432 112.056831,16.6571173 C112.056831,16.2832976 111.915165,15.9866595 111.632276,15.7662732 C111.34983,15.5468169 110.884104,15.2989986 110.234655,15.0242132 C109.920334,14.8921674 109.619736,14.7577969 109.331535,14.6197067 C109.043776,14.4825465 108.794533,14.320279 108.585576,14.1329041 C108.375734,13.9464592 108.208391,13.7209585 108.082662,13.456867 C107.956934,13.1927754 107.89407,12.8687053 107.89407,12.4837268 C107.89407,11.7244635 108.161464,11.1223534 108.695367,10.6769313 C109.229713,10.2315093 109.957078,10.0087983 110.878349,10.0087983 C111.108998,10.0087983 111.339205,10.0227468 111.569855,10.0501788 C111.800062,10.0776109 112.015217,10.1106223 112.213992,10.1492132 C112.412324,10.187804 112.588078,10.2291845 112.739926,10.2728898 C112.891774,10.3170601 113.009534,10.355186 113.093648,10.3881974 L112.826696,11.7081903 C112.669093,11.6203147 112.423391,11.5291845 112.088263,11.4357296 C111.752692,11.3427396 111.34983,11.2957797 110.878349,11.2957797 C110.470174,11.2957797 110.114239,11.3808655 109.810543,11.5515021 C109.506846,11.7221388 109.354998,11.9885551 109.354998,12.351216 C109.354998,12.5385908 109.389087,12.7036481 109.457263,12.8463877 C109.52544,12.9895923 109.629919,13.1183834 109.771142,13.2341559 C109.912808,13.3494635 110.087676,13.456867 110.297519,13.5559013 C110.506919,13.6549356 110.758375,13.7595494 111.051447,13.8692775 C111.438814,14.0236409 111.784124,14.1742847 112.088263,14.3230687 C112.391959,14.4713877 112.650942,14.644814 112.866097,14.8424177 C113.080367,15.0404864 113.245053,15.2799356 113.361042,15.5603004 C113.47526,15.8406652 113.533254,16.1847282 113.533254,16.5915594 C113.533254,17.3833691 113.253464,17.9826896 112.692999,18.3895207 C112.132534,18.7963519 111.334335,19 110.297519,19 C109.575023,19 109.009688,18.9367668 108.601071,18.8103004 C108.192896,18.683834 107.914877,18.5875894 107.768341,18.5215665 L108.035293,17.2015737 C108.202636,17.2675966 108.47003,17.3666309 108.83659,17.4986767 C109.20315,17.6307225 109.690127,17.6967454 110.297519,17.6967454 L110.297519,17.6967454 Z M102.961886,17.6967454 C103.308082,17.6967454 103.613992,17.6883763 103.881386,17.6716381 C104.147895,17.6553648 104.370576,17.6251431 104.5481,17.5814378 L104.5481,15.0242132 C104.443622,14.9693491 104.273623,14.9223891 104.038104,14.8837983 C103.802584,14.8452074 103.517039,14.8261445 103.182354,14.8261445 C102.961886,14.8261445 102.729023,14.8424177 102.482879,14.8754292 C102.236734,14.9084406 102.01184,14.9772532 101.807752,15.081867 C101.603222,15.1864807 101.432781,15.3292203 101.297313,15.5105508 C101.16096,15.6923462 101.092783,15.9313305 101.092783,16.2284335 C101.092783,16.7784692 101.260568,17.1606581 101.595696,17.375 C101.930382,17.5893419 102.386369,17.6967454 102.961886,17.6967454 L102.961886,17.6967454 Z M102.8366,10.0087983 C103.422743,10.0087983 103.917688,10.0887697 104.320992,10.2482475 C104.723855,10.4077253 105.048358,10.633226 105.294945,10.9247496 C105.541089,11.2162732 105.716401,11.5626609 105.820879,11.9639127 C105.9258,12.3656295 105.97804,12.8077969 105.97804,13.2918097 L105.97804,18.6536123 C105.852311,18.6759299 105.677,18.7056867 105.451663,18.7442775 C105.226768,18.7828684 104.972655,18.8186695 104.690209,18.851216 C104.40732,18.8842275 104.10141,18.9144492 103.771152,18.9423462 C103.441336,18.9693133 103.113734,18.9832618 102.789231,18.9832618 C102.328374,18.9832618 101.904262,18.9339771 101.517338,18.8349428 C101.129527,18.7359084 100.794399,18.5792203 100.51151,18.3648784 C100.229064,18.1505365 100.009482,17.867382 99.8518789,17.5149499 C99.6951611,17.1634478 99.6163595,16.7398784 99.6163595,16.2447067 C99.6163595,15.7718526 99.7079996,15.3650215 99.8912797,15.0242132 C100.07456,14.6834049 100.322918,14.4081545 100.637239,14.199392 C100.95156,13.9901645 101.31812,13.8362661 101.73692,13.7372318 C102.155276,13.6381974 102.595326,13.5889127 103.056182,13.5889127 C103.202718,13.5889127 103.354566,13.5972818 103.511727,13.6135551 C103.668887,13.6298283 103.818522,13.6521459 103.959302,13.679578 C104.10141,13.70701 104.22404,13.7316524 104.328518,13.75397 C104.43344,13.7758226 104.506929,13.7925608 104.5481,13.8032546 L104.5481,13.3745708 C104.5481,13.1216381 104.522424,12.87103 104.470184,12.6236767 C104.417502,12.3763233 104.323206,12.156402 104.187295,11.9639127 C104.050942,11.7714235 103.865006,11.617525 103.629929,11.5017525 C103.393967,11.3864449 103.088057,11.3287911 102.710872,11.3287911 C102.229208,11.3287911 101.807752,11.3645923 101.446505,11.4357296 C101.085257,11.5077969 100.815649,11.5817239 100.637239,11.6584406 L100.464584,10.3881974 C100.653176,10.3003219 100.967497,10.2152361 101.407104,10.132475 C101.846711,10.0501788 102.323505,10.0087983 102.8366,10.0087983 L102.8366,10.0087983 Z M96.4434881,19 C95.7838567,19 95.2047977,18.8898069 94.7076392,18.6698856 C94.2100381,18.4499642 93.7912385,18.1421674 93.4507979,17.74603 C93.1103573,17.3498927 92.8562442,16.8798283 92.6889015,16.335372 C92.521116,15.7913805 92.4374447,15.1888054 92.4374447,14.5290415 C92.4374447,13.8692775 92.5290847,13.2643777 92.7128076,12.7143419 C92.895645,12.1647711 93.1546278,11.6891273 93.4901987,11.2874106 C93.8253269,10.8861588 94.2361577,10.5727825 94.7231339,10.3468169 C95.2101102,10.1217811 95.7519819,10.0087983 96.3491918,10.0087983 C96.7153094,10.0087983 97.081427,10.0418097 97.4484299,10.1078326 C97.8149902,10.1738555 98.1656131,10.2784692 98.501184,10.4212089 L98.1709256,11.7244635 C97.9513436,11.6147353 97.6972305,11.5268598 97.4090291,11.460372 C97.1208278,11.394814 96.8149182,11.3618026 96.4899722,11.3618026 C95.673623,11.3618026 95.0476372,11.6314735 94.6133429,12.1698856 C94.178606,12.7092275 93.9612375,13.4954578 93.9612375,14.5290415 C93.9612375,14.9912017 94.0112633,15.4147711 94.1104293,15.7992847 C94.2100381,16.1847282 94.3667559,16.5143777 94.5819108,16.7891631 C94.7961804,17.0644134 95.0711006,17.2759657 95.4066715,17.4242847 C95.7417996,17.5726037 96.1499743,17.6469957 96.6320807,17.6469957 C97.0190055,17.6469957 97.370071,17.6088698 97.6843921,17.5316881 C97.9987131,17.4549714 98.2444147,17.3722103 98.4228251,17.2843348 L98.6264697,18.5708512 C98.5427983,18.6261803 98.4228251,18.6782546 98.2652219,18.7275393 C98.1085041,18.777289 97.929651,18.8209943 97.7313189,18.8595851 C97.532544,18.898176 97.3200453,18.9311874 97.0951508,18.9586195 C96.8698137,18.9860515 96.6524452,19 96.4434881,19 L96.4434881,19 Z M85.510872,19 C84.8507979,19 84.2726243,18.8898069 83.7754659,18.6698856 C83.2778647,18.4499642 82.8586225,18.1421674 82.5186245,17.74603 C82.1777412,17.3498927 81.9236281,16.8798283 81.7567281,16.335372 C81.5889427,15.7913805 81.5052713,15.1888054 81.5052713,14.5290415 C81.5052713,13.8692775 81.5969114,13.2643777 81.7801915,12.7143419 C81.9630289,12.1647711 82.2224544,11.6891273 82.5575826,11.2874106 C82.8922681,10.8861588 83.3039844,10.5727825 83.7909606,10.3468169 C84.2774941,10.1217811 84.8193658,10.0087983 85.4165757,10.0087983 C85.783136,10.0087983 86.1492536,10.0418097 86.5158139,10.1078326 C86.8823741,10.1738555 87.2334397,10.2784692 87.5685679,10.4212089 L87.2387522,11.7244635 C87.0191702,11.6147353 86.7650571,11.5268598 86.4768558,11.460372 C86.1886544,11.394814 85.8818594,11.3618026 85.5577988,11.3618026 C84.7410069,11.3618026 84.1150211,11.6314735 83.6811696,12.1698856 C83.2459899,12.7092275 83.0286214,13.4954578 83.0286214,14.5290415 C83.0286214,14.9912017 83.0782045,15.4147711 83.1782559,15.7992847 C83.2778647,16.1847282 83.4345825,16.5143777 83.6492948,16.7891631 C83.864007,17.0644134 84.1389272,17.2759657 84.4740554,17.4242847 C84.8091836,17.5726037 85.2173582,17.6469957 85.6990219,17.6469957 C86.0863894,17.6469957 86.437455,17.6088698 86.751776,17.5316881 C87.0656543,17.4549714 87.3117986,17.3722103 87.490209,17.2843348 L87.6942963,18.5708512 C87.6106249,18.6261803 87.490209,18.6782546 87.3330485,18.7275393 C87.175888,18.777289 86.9974776,18.8209943 86.7991455,18.8595851 C86.5994852,18.898176 86.3878719,18.9311874 86.1625347,18.9586195 C85.9371976,18.9860515 85.7198291,19 85.510872,19 L85.510872,19 Z M77.9866468,18.8019313 L79.4475754,18.8019313 L79.4475754,10.2231402 L77.9866468,10.2231402 L77.9866468,18.8019313 Z M78.7091424,8.67253219 C78.4470606,8.67253219 78.2248224,8.58186695 78.0415423,8.40007153 C77.8582621,8.21874106 77.7666221,7.9741774 77.7666221,7.66638054 C77.7666221,7.35858369 77.8582621,7.11355508 78.0415423,6.93222461 C78.2248224,6.75089413 78.4470606,6.65976395 78.7091424,6.65976395 C78.9712241,6.65976395 79.1934624,6.75089413 79.3767425,6.93222461 C79.5600227,7.11355508 79.6516627,7.35858369 79.6516627,7.66638054 C79.6516627,7.9741774 79.5600227,8.21874106 79.3767425,8.40007153 C79.1934624,8.58186695 78.9712241,8.67253219 78.7091424,8.67253219 L78.7091424,8.67253219 Z M74.9395038,10.0418097 C75.0652322,10.0418097 75.2091115,10.0501788 75.3715845,10.0664521 C75.5336147,10.0831903 75.6934315,10.1050429 75.8501493,10.132475 C76.0077525,10.160372 76.1516318,10.187804 76.2826727,10.2152361 C76.4137136,10.2426681 76.5097807,10.2677754 76.5730876,10.2891631 L76.3216308,11.6254292 C76.2065273,11.5817239 76.0152785,11.5291845 75.7487697,11.469206 C75.4813755,11.4087625 75.1382786,11.3780758 74.719479,11.3780758 C74.4472151,11.3780758 74.17805,11.4087625 73.9102131,11.469206 C73.6437043,11.5291845 73.4679502,11.5705651 73.3847215,11.5928827 L73.3847215,18.8019313 L71.9233501,18.8019313 L71.9233501,10.5862661 C72.2686606,10.4542203 72.6985277,10.3305436 73.2111809,10.2152361 C73.7242767,10.0994635 74.3006795,10.0418097 74.9395038,10.0418097 L74.9395038,10.0418097 Z M66.9756718,10.2231402 L70.070627,10.2231402 L70.070627,11.5101216 L66.9756718,11.5101216 L66.9756718,15.4696352 C66.9756718,15.898319 67.0071039,16.2530758 67.0699681,16.5334406 C67.1328323,16.8142704 67.2271286,17.0341917 67.352857,17.1936695 C67.4781427,17.3531474 67.6357459,17.4656652 67.8238958,17.5316881 C68.0124884,17.597711 68.2320704,17.6307225 68.4839699,17.6307225 C68.9235766,17.6307225 69.2772985,17.5786481 69.54425,17.4740343 C69.8112015,17.3694206 69.9971379,17.2954936 70.1016164,17.2513233 L70.3845053,18.5215665 C70.237527,18.5987482 69.9807577,18.6949928 69.6146402,18.8103004 C69.2480799,18.925608 68.8292803,18.9832618 68.3577988,18.9832618 C67.8026459,18.9832618 67.3448883,18.9088698 66.9836405,18.7605508 C66.6223927,18.6122318 66.3315351,18.3895207 66.1119531,18.0924177 C65.8919283,17.7953147 65.7374241,17.4298641 65.6484402,16.9956009 C65.5594564,16.5613376 65.5151858,16.0582618 65.5151858,15.4859084 L65.5151858,7.83097282 L66.9756718,7.56734621 L66.9756718,10.2231402 Z M61.8548955,19 C61.1952641,19 60.6166478,18.8898069 60.1194893,18.6698856 C59.6218882,18.4499642 59.2026459,18.1421674 58.862648,17.74603 C58.5222074,17.3498927 58.2680943,16.8798283 58.1007516,16.335372 C57.9334088,15.7913805 57.8492948,15.1888054 57.8492948,14.5290415 C57.8492948,13.8692775 57.9409348,13.2643777 58.124215,12.7143419 C58.3074951,12.1647711 58.5664779,11.6891273 58.9020488,11.2874106 C59.2367343,10.8861588 59.6480078,10.5727825 60.134984,10.3468169 C60.6219603,10.1217811 61.163832,10.0087983 61.7605992,10.0087983 C62.1271595,10.0087983 62.4932771,10.0418097 62.8598373,10.1078326 C63.2268403,10.1738555 63.5774632,10.2784692 63.9125914,10.4212089 L63.5827757,11.7244635 C63.362751,11.6147353 63.1086379,11.5268598 62.8208792,11.460372 C62.5326779,11.394814 62.2267682,11.3618026 61.9018223,11.3618026 C61.0850304,11.3618026 60.4594873,11.6314735 60.025193,12.1698856 C59.5900134,12.7092275 59.3730876,13.4954578 59.3730876,14.5290415 C59.3730876,14.9912017 59.4226706,15.4147711 59.5222794,15.7992847 C59.6218882,16.1847282 59.778606,16.5143777 59.9933182,16.7891631 C60.2080305,17.0644134 60.4829507,17.2759657 60.8180789,17.4242847 C61.153207,17.5726037 61.5613817,17.6469957 62.0434881,17.6469957 C62.4308556,17.6469957 62.7814784,17.6088698 63.0962421,17.5316881 C63.4101205,17.4549714 63.6558221,17.3722103 63.8342325,17.2843348 L64.0387625,18.5708512 C63.9542057,18.6261803 63.8342325,18.6782546 63.677072,18.7275393 C63.5199115,18.777289 63.3415011,18.8209943 63.1427262,18.8595851 C62.9439514,18.898176 62.7314527,18.9311874 62.5070009,18.9586195 C62.2816637,18.9860515 62.064738,19 61.8548955,19 L61.8548955,19 Z M54.6768661,13.6874821 C54.6870483,12.9947067 54.5219191,12.425608 54.1819211,11.980186 C53.8410378,11.5347639 53.3726552,11.3120529 52.775888,11.3120529 C52.4407598,11.3120529 52.1445897,11.3808655 51.8882632,11.5184907 C51.6319366,11.6561159 51.4145681,11.8346567 51.2366004,12.054578 C51.0581901,12.2744993 50.9196232,12.527432 50.8204571,12.8133763 C50.7208483,13.0993205 50.6553279,13.3908441 50.6238958,13.6874821 L54.6768661,13.6874821 Z M49.0686709,14.5290415 C49.0686709,13.7702432 49.1731494,13.1076896 49.3829919,12.5413805 C49.5923916,11.9746066 49.8699681,11.5045422 50.2152785,11.1307225 C50.5610316,10.7569027 50.959024,10.4765379 51.4092556,10.2891631 C51.8594873,10.1027182 52.3203439,10.0087983 52.7913827,10.0087983 C53.8910635,10.0087983 54.7339751,10.3691345 55.3205601,11.0893419 C55.9067024,11.8100143 56.2002162,12.9068312 56.2002162,14.3807225 L56.2002162,14.6364449 C56.2002162,14.7410587 56.1949037,14.8373033 56.1847215,14.9251788 L50.5924637,14.9251788 C50.6553279,15.8160229 50.9010295,16.492525 51.330454,16.9542203 C51.7603212,17.4163805 52.4301349,17.6469957 53.3412231,17.6469957 C53.854319,17.6469957 54.2863997,17.6005007 54.6374653,17.5070458 C54.9880881,17.4135908 55.2523834,17.3229256 55.4307938,17.2345851 L55.6348811,18.5215665 C55.4564707,18.6206009 55.1452486,18.7252146 54.7003295,18.8349428 C54.2549676,18.944671 53.7498404,19 53.1840626,19 C52.4721919,19 51.8568311,18.8870172 51.3388654,18.6615165 C50.8204571,18.4364807 50.3936889,18.1254292 50.058118,17.7297568 C49.7229898,17.3336195 49.4746319,16.8635551 49.312159,16.3190987 C49.149686,15.7746423 49.0686709,15.1781116 49.0686709,14.5290415 L49.0686709,14.5290415 Z M47.6865438,18.9669886 C46.7856378,18.944671 46.1472563,18.7414878 45.770071,18.3565093 C45.3933285,17.9715308 45.2047359,17.3722103 45.2047359,16.558083 L45.2047359,6.26409156 L46.6656646,6 L46.6656646,16.3107296 C46.6656646,16.5641273 46.6864717,16.7728898 46.7280861,16.9379471 C46.7701431,17.1025393 46.8383198,17.2345851 46.9326161,17.3336195 C47.0269124,17.4326538 47.1521981,17.5070458 47.3093586,17.5563305 C47.4665191,17.6060801 47.6604242,17.6469957 47.8906311,17.6800072 L47.6865438,18.9669886 Z M41.6077525,13.6874821 C41.6183774,12.9947067 41.4528055,12.425608 41.1128076,11.980186 C40.7723669,11.5347639 40.3039844,11.3120529 39.7067744,11.3120529 C39.3716462,11.3120529 39.0759189,11.3808655 38.8195923,11.5184907 C38.562823,11.6561159 38.3454545,11.8346567 38.1674869,12.054578 C37.9895192,12.2744993 37.8505096,12.527432 37.7513436,12.8133763 C37.6517348,13.0993205 37.5866571,13.3908441 37.5547823,13.6874821 L41.6077525,13.6874821 Z M36,14.5290415 C36,13.7702432 36.1044785,13.1076896 36.314321,12.5413805 C36.5237208,11.9746066 36.8008545,11.5045422 37.1466076,11.1307225 C37.4923608,10.7569027 37.8899104,10.4765379 38.3405848,10.2891631 C38.7903737,10.1027182 39.2512303,10.0087983 39.7227118,10.0087983 C40.8223927,10.0087983 41.6653042,10.3691345 42.2518892,11.0893419 C42.8380315,11.8100143 43.1311026,12.9068312 43.1311026,14.3807225 L43.1311026,14.6364449 C43.1311026,14.7410587 43.1257902,14.8373033 43.1156079,14.9251788 L37.5233501,14.9251788 C37.5866571,15.8160229 37.8323587,16.492525 38.2617832,16.9542203 C38.6912077,17.4163805 39.361464,17.6469957 40.2721095,17.6469957 C40.7852054,17.6469957 41.2172861,17.6005007 41.5683517,17.5070458 C41.9194173,17.4135908 42.1832698,17.3229256 42.3616802,17.2345851 L42.5657675,18.5215665 C42.3877999,18.6206009 42.0761351,18.7252146 41.6312159,18.8349428 C41.185854,18.944671 40.6807269,19 40.1153917,19 C39.4030783,19 38.7881602,18.8870172 38.2697519,18.6615165 C37.7513436,18.4364807 37.3245753,18.1254292 36.9894471,17.7297568 C36.654319,17.3336195 36.4055184,16.8635551 36.2434881,16.3190987 C36.0810151,15.7746423 36,15.1781116 36,14.5290415 L36,14.5290415 Z" id="Fill-17" fill="#000000"></path>
                <g id="Group-21">
                    <mask id="mask-2" fill="white">
                        <use xlink:href="#path-1"></use>
                    </mask>
                    <g id="Clip-20"></g>
                    <path d="M0.0989032258,14.0234839 C0.0989032258,21.6878065 6.31219355,27.9010968 13.9765161,27.9010968 L13.9765161,27.9010968 C21.6408387,27.9010968 27.854129,21.6878065 27.854129,14.0234839 L27.854129,14.0234839 C27.854129,6.35916129 21.6408387,0.145870968 13.9765161,0.145870968 L13.9765161,0.145870968 C6.31219355,0.145870968 0.0989032258,6.35916129 0.0989032258,14.0234839" id="Fill-19" fill="url(#linearGradient-3)" mask="url(#mask-2)"></path>
                </g>
                <polygon id="Fill-22" fill="#FFFFFF" points="12.9342089 23 14.2025343 15.3054575 9 15.3054575 16.0653296 4 14.7974657 11.6945425 20 11.6945425"></polygon>
            </g>
        </g>
    </g>
</svg>